<mxfile host="app.diagrams.net" modified="2023-03-21T04:39:08.520Z" agent="5.0 (Windows NT 10.0; Win64; x64) AppleWebKit/537.36 (KHTML, like Gecko) Chrome/111.0.0.0 Safari/537.36" etag="hJlWHOovzcUfz06Z1Asg" version="21.0.8" type="github">
  <diagram name="Page-1" id="WAkiQT8qeH9SeWsake0u">
    <mxGraphModel dx="1134" dy="566" grid="1" gridSize="10" guides="1" tooltips="1" connect="1" arrows="1" fold="1" page="1" pageScale="1" pageWidth="827" pageHeight="1169" math="0" shadow="0">
      <root>
        <mxCell id="0" />
        <mxCell id="1" parent="0" />
        <mxCell id="fl1TzAaq8baz_N8d9lBg-7" style="edgeStyle=orthogonalEdgeStyle;rounded=0;orthogonalLoop=1;jettySize=auto;html=1;exitX=0.75;exitY=0;exitDx=0;exitDy=0;" parent="1" source="fl1TzAaq8baz_N8d9lBg-1" target="fl1TzAaq8baz_N8d9lBg-6" edge="1">
          <mxGeometry relative="1" as="geometry" />
        </mxCell>
        <mxCell id="fl1TzAaq8baz_N8d9lBg-13" style="edgeStyle=orthogonalEdgeStyle;rounded=0;orthogonalLoop=1;jettySize=auto;html=1;exitX=1;exitY=0.25;exitDx=0;exitDy=0;" parent="1" source="fl1TzAaq8baz_N8d9lBg-1" target="fl1TzAaq8baz_N8d9lBg-12" edge="1">
          <mxGeometry relative="1" as="geometry" />
        </mxCell>
        <mxCell id="fl1TzAaq8baz_N8d9lBg-21" style="edgeStyle=orthogonalEdgeStyle;rounded=0;orthogonalLoop=1;jettySize=auto;html=1;exitX=0.75;exitY=1;exitDx=0;exitDy=0;" parent="1" source="fl1TzAaq8baz_N8d9lBg-1" target="fl1TzAaq8baz_N8d9lBg-20" edge="1">
          <mxGeometry relative="1" as="geometry" />
        </mxCell>
        <mxCell id="fl1TzAaq8baz_N8d9lBg-25" style="edgeStyle=orthogonalEdgeStyle;rounded=0;orthogonalLoop=1;jettySize=auto;html=1;exitX=0.25;exitY=1;exitDx=0;exitDy=0;" parent="1" source="fl1TzAaq8baz_N8d9lBg-1" target="fl1TzAaq8baz_N8d9lBg-24" edge="1">
          <mxGeometry relative="1" as="geometry" />
        </mxCell>
        <mxCell id="fl1TzAaq8baz_N8d9lBg-29" style="edgeStyle=orthogonalEdgeStyle;rounded=0;orthogonalLoop=1;jettySize=auto;html=1;exitX=0;exitY=0.5;exitDx=0;exitDy=0;" parent="1" source="fl1TzAaq8baz_N8d9lBg-1" target="fl1TzAaq8baz_N8d9lBg-28" edge="1">
          <mxGeometry relative="1" as="geometry" />
        </mxCell>
        <mxCell id="fl1TzAaq8baz_N8d9lBg-1" value="&lt;font size=&quot;1&quot; color=&quot;#3333ff&quot; style=&quot;&quot;&gt;&lt;b style=&quot;font-size: 22px;&quot;&gt;Digestion&lt;/b&gt;&lt;/font&gt;" style="rounded=0;whiteSpace=wrap;html=1;fillColor=#D5E8D4;" parent="1" vertex="1">
          <mxGeometry x="250" y="300" width="140" height="65" as="geometry" />
        </mxCell>
        <mxCell id="fl1TzAaq8baz_N8d9lBg-9" style="edgeStyle=orthogonalEdgeStyle;rounded=0;orthogonalLoop=1;jettySize=auto;html=1;exitX=0.75;exitY=0;exitDx=0;exitDy=0;" parent="1" source="fl1TzAaq8baz_N8d9lBg-6" target="fl1TzAaq8baz_N8d9lBg-8" edge="1">
          <mxGeometry relative="1" as="geometry" />
        </mxCell>
        <mxCell id="fl1TzAaq8baz_N8d9lBg-11" style="edgeStyle=orthogonalEdgeStyle;rounded=0;orthogonalLoop=1;jettySize=auto;html=1;exitX=0.25;exitY=0;exitDx=0;exitDy=0;" parent="1" source="fl1TzAaq8baz_N8d9lBg-6" target="fl1TzAaq8baz_N8d9lBg-10" edge="1">
          <mxGeometry relative="1" as="geometry" />
        </mxCell>
        <mxCell id="fl1TzAaq8baz_N8d9lBg-6" value="&lt;b&gt;&lt;font color=&quot;#ff0000&quot;&gt;Constipation&lt;/font&gt;&lt;/b&gt;" style="rounded=0;whiteSpace=wrap;html=1;" parent="1" vertex="1">
          <mxGeometry x="320" y="190" width="120" height="60" as="geometry" />
        </mxCell>
        <mxCell id="fl1TzAaq8baz_N8d9lBg-8" value="&lt;font color=&quot;#ff9933&quot;&gt;&lt;b&gt;&lt;i&gt;Mild-&lt;/i&gt;&lt;/b&gt;&lt;/font&gt; &lt;font style=&quot;font-size: 14px;&quot; color=&quot;#00994d&quot;&gt;&lt;b&gt;SNS&lt;/b&gt;&lt;/font&gt;" style="rounded=0;whiteSpace=wrap;html=1;" parent="1" vertex="1">
          <mxGeometry x="390" y="80" width="120" height="60" as="geometry" />
        </mxCell>
        <mxCell id="fl1TzAaq8baz_N8d9lBg-10" value="&lt;b&gt;&lt;font color=&quot;#ff9933&quot;&gt;&lt;i&gt;Chronic-&lt;/i&gt;&lt;/font&gt;&lt;/b&gt; &lt;b&gt;&lt;font color=&quot;#00994d&quot; style=&quot;font-size: 14px;&quot;&gt;DCHT&lt;/font&gt;&lt;/b&gt;" style="rounded=0;whiteSpace=wrap;html=1;" parent="1" vertex="1">
          <mxGeometry x="240" y="80" width="120" height="60" as="geometry" />
        </mxCell>
        <mxCell id="fl1TzAaq8baz_N8d9lBg-15" style="edgeStyle=orthogonalEdgeStyle;rounded=0;orthogonalLoop=1;jettySize=auto;html=1;exitX=1;exitY=0;exitDx=0;exitDy=0;" parent="1" source="fl1TzAaq8baz_N8d9lBg-12" target="fl1TzAaq8baz_N8d9lBg-14" edge="1">
          <mxGeometry relative="1" as="geometry" />
        </mxCell>
        <mxCell id="fl1TzAaq8baz_N8d9lBg-19" style="edgeStyle=orthogonalEdgeStyle;rounded=0;orthogonalLoop=1;jettySize=auto;html=1;exitX=1;exitY=1;exitDx=0;exitDy=0;" parent="1" source="fl1TzAaq8baz_N8d9lBg-12" target="fl1TzAaq8baz_N8d9lBg-18" edge="1">
          <mxGeometry relative="1" as="geometry" />
        </mxCell>
        <mxCell id="fl1TzAaq8baz_N8d9lBg-12" value="&lt;font color=&quot;#ff0000&quot;&gt;&lt;b&gt;Diarrhoea/loose stools&lt;/b&gt;&lt;/font&gt;" style="rounded=0;whiteSpace=wrap;html=1;" parent="1" vertex="1">
          <mxGeometry x="430" y="305" width="120" height="60" as="geometry" />
        </mxCell>
        <mxCell id="fl1TzAaq8baz_N8d9lBg-14" value="&lt;font color=&quot;#ff9933&quot;&gt;&lt;b&gt;&lt;i&gt;Mild-&lt;/i&gt;&lt;/b&gt;&lt;/font&gt; &lt;font style=&quot;font-size: 14px;&quot; color=&quot;#00994d&quot;&gt;&lt;b&gt;LZW&lt;/b&gt;&lt;/font&gt;" style="rounded=0;whiteSpace=wrap;html=1;" parent="1" vertex="1">
          <mxGeometry x="610" y="250" width="120" height="60" as="geometry" />
        </mxCell>
        <mxCell id="fl1TzAaq8baz_N8d9lBg-18" value="&lt;i&gt;&lt;b&gt;&lt;font color=&quot;#ff9933&quot;&gt;Chronic-&lt;/font&gt;&lt;/b&gt; &lt;/i&gt;&lt;font style=&quot;font-size: 14px;&quot; color=&quot;#00994d&quot;&gt;&lt;b&gt;SLBZS&lt;/b&gt;&lt;/font&gt;" style="rounded=0;whiteSpace=wrap;html=1;" parent="1" vertex="1">
          <mxGeometry x="610" y="335" width="120" height="60" as="geometry" />
        </mxCell>
        <mxCell id="fl1TzAaq8baz_N8d9lBg-20" value="&lt;b&gt;&lt;font color=&quot;#ff0000&quot;&gt;Indigestion-&lt;/font&gt;&lt;/b&gt; &lt;font size=&quot;1&quot; color=&quot;#00994d&quot;&gt;&lt;b style=&quot;font-size: 14px;&quot;&gt;BHW&lt;/b&gt;&lt;/font&gt;" style="rounded=0;whiteSpace=wrap;html=1;" parent="1" vertex="1">
          <mxGeometry x="370" y="460" width="120" height="60" as="geometry" />
        </mxCell>
        <mxCell id="fl1TzAaq8baz_N8d9lBg-24" value="&lt;b&gt;&lt;font color=&quot;#ff0000&quot;&gt;Gut dysbiosis-&lt;/font&gt;&lt;/b&gt; &lt;b&gt;&lt;font color=&quot;#00994d&quot; style=&quot;font-size: 14px;&quot;&gt;BXXXT - BX @12g&lt;/font&gt;&lt;/b&gt;" style="rounded=0;whiteSpace=wrap;html=1;" parent="1" vertex="1">
          <mxGeometry x="190" y="450" width="120" height="60" as="geometry" />
        </mxCell>
        <mxCell id="fl1TzAaq8baz_N8d9lBg-28" value="&lt;font color=&quot;#ff0000&quot;&gt;&lt;b&gt;Halitosis-&lt;/b&gt;&lt;/font&gt;&amp;nbsp;&lt;b style=&quot;border-color: var(--border-color);&quot;&gt;&lt;font style=&quot;border-color: var(--border-color); font-size: 14px;&quot; color=&quot;#00994d&quot;&gt;BXXXT - BX @12g&lt;/font&gt;&lt;/b&gt;" style="rounded=0;whiteSpace=wrap;html=1;" parent="1" vertex="1">
          <mxGeometry x="60" y="305" width="120" height="60" as="geometry" />
        </mxCell>
        <mxCell id="fl1TzAaq8baz_N8d9lBg-32" style="edgeStyle=orthogonalEdgeStyle;rounded=0;orthogonalLoop=1;jettySize=auto;html=1;exitX=0.75;exitY=1;exitDx=0;exitDy=0;" parent="1" source="fl1TzAaq8baz_N8d9lBg-35" target="fl1TzAaq8baz_N8d9lBg-46" edge="1">
          <mxGeometry relative="1" as="geometry" />
        </mxCell>
        <mxCell id="fl1TzAaq8baz_N8d9lBg-85" style="edgeStyle=orthogonalEdgeStyle;rounded=0;orthogonalLoop=1;jettySize=auto;html=1;exitX=0;exitY=0.5;exitDx=0;exitDy=0;entryX=1;entryY=0.25;entryDx=0;entryDy=0;" parent="1" source="fl1TzAaq8baz_N8d9lBg-35" target="fl1TzAaq8baz_N8d9lBg-38" edge="1">
          <mxGeometry relative="1" as="geometry" />
        </mxCell>
        <mxCell id="fl1TzAaq8baz_N8d9lBg-86" style="edgeStyle=orthogonalEdgeStyle;rounded=0;orthogonalLoop=1;jettySize=auto;html=1;exitX=0.5;exitY=0;exitDx=0;exitDy=0;entryX=0.65;entryY=1.057;entryDx=0;entryDy=0;entryPerimeter=0;" parent="1" source="fl1TzAaq8baz_N8d9lBg-35" target="fl1TzAaq8baz_N8d9lBg-84" edge="1">
          <mxGeometry relative="1" as="geometry" />
        </mxCell>
        <mxCell id="fl1TzAaq8baz_N8d9lBg-35" value="&lt;font size=&quot;1&quot; color=&quot;#3333ff&quot; style=&quot;&quot;&gt;&lt;b style=&quot;font-size: 22px;&quot;&gt;Stress&lt;/b&gt;&lt;/font&gt;" style="rounded=0;whiteSpace=wrap;html=1;fillColor=#D5E8D4;" parent="1" vertex="1">
          <mxGeometry x="344" y="760" width="140" height="65" as="geometry" />
        </mxCell>
        <mxCell id="fl1TzAaq8baz_N8d9lBg-36" style="edgeStyle=orthogonalEdgeStyle;rounded=0;orthogonalLoop=1;jettySize=auto;html=1;exitX=0.75;exitY=0;exitDx=0;exitDy=0;" parent="1" source="fl1TzAaq8baz_N8d9lBg-38" target="fl1TzAaq8baz_N8d9lBg-39" edge="1">
          <mxGeometry relative="1" as="geometry" />
        </mxCell>
        <mxCell id="fl1TzAaq8baz_N8d9lBg-37" style="edgeStyle=orthogonalEdgeStyle;rounded=0;orthogonalLoop=1;jettySize=auto;html=1;exitX=0.25;exitY=0;exitDx=0;exitDy=0;" parent="1" source="fl1TzAaq8baz_N8d9lBg-38" target="fl1TzAaq8baz_N8d9lBg-40" edge="1">
          <mxGeometry relative="1" as="geometry" />
        </mxCell>
        <mxCell id="fl1TzAaq8baz_N8d9lBg-38" value="&lt;b&gt;&lt;font color=&quot;#ff0000&quot;&gt;General Stress&lt;/font&gt;&lt;/b&gt;" style="rounded=0;whiteSpace=wrap;html=1;" parent="1" vertex="1">
          <mxGeometry x="100" y="780" width="120" height="60" as="geometry" />
        </mxCell>
        <mxCell id="fl1TzAaq8baz_N8d9lBg-39" value="&lt;b style=&quot;&quot;&gt;&lt;i style=&quot;&quot;&gt;&lt;font color=&quot;#ff9933&quot;&gt;With particular heat and agitation-&lt;/font&gt;&lt;/i&gt;&lt;/b&gt;&amp;nbsp;&lt;font color=&quot;#00994d&quot;&gt;&lt;span style=&quot;font-size: 14px;&quot;&gt;&lt;b&gt;JWXYS&lt;/b&gt;&lt;/span&gt;&lt;/font&gt;" style="rounded=0;whiteSpace=wrap;html=1;" parent="1" vertex="1">
          <mxGeometry x="170" y="670" width="120" height="60" as="geometry" />
        </mxCell>
        <mxCell id="fl1TzAaq8baz_N8d9lBg-40" value="&lt;b&gt;&lt;i style=&quot;&quot;&gt;&lt;font color=&quot;#ff9933&quot;&gt;General-&lt;/font&gt;&lt;/i&gt;&lt;/b&gt;&amp;nbsp;&lt;font color=&quot;#00994d&quot;&gt;&lt;span style=&quot;font-size: 14px;&quot;&gt;&lt;b&gt;XYS&lt;/b&gt;&lt;/span&gt;&lt;/font&gt;" style="rounded=0;whiteSpace=wrap;html=1;" parent="1" vertex="1">
          <mxGeometry x="20" y="670" width="120" height="60" as="geometry" />
        </mxCell>
        <mxCell id="fl1TzAaq8baz_N8d9lBg-46" value="&lt;font color=&quot;#ff0000&quot;&gt;&lt;b&gt;Low mood-&lt;/b&gt;&lt;/font&gt;&amp;nbsp;&lt;font color=&quot;#00994d&quot;&gt;&lt;span style=&quot;font-size: 14px;&quot;&gt;&lt;b&gt;XCHT + BH12g, CH@12g&lt;/b&gt;&lt;/span&gt;&lt;/font&gt;" style="rounded=0;whiteSpace=wrap;html=1;" parent="1" vertex="1">
          <mxGeometry x="550" y="765" width="120" height="60" as="geometry" />
        </mxCell>
        <mxCell id="fl1TzAaq8baz_N8d9lBg-51" style="edgeStyle=orthogonalEdgeStyle;rounded=0;orthogonalLoop=1;jettySize=auto;html=1;exitX=0.75;exitY=0;exitDx=0;exitDy=0;" parent="1" source="fl1TzAaq8baz_N8d9lBg-53" target="fl1TzAaq8baz_N8d9lBg-56" edge="1">
          <mxGeometry relative="1" as="geometry">
            <Array as="points">
              <mxPoint x="360" y="1000" />
              <mxPoint x="360" y="980" />
              <mxPoint x="292" y="980" />
              <mxPoint x="292" y="1050" />
            </Array>
          </mxGeometry>
        </mxCell>
        <mxCell id="fl1TzAaq8baz_N8d9lBg-52" style="edgeStyle=orthogonalEdgeStyle;rounded=0;orthogonalLoop=1;jettySize=auto;html=1;exitX=0.75;exitY=1;exitDx=0;exitDy=0;" parent="1" source="fl1TzAaq8baz_N8d9lBg-53" target="fl1TzAaq8baz_N8d9lBg-59" edge="1">
          <mxGeometry relative="1" as="geometry" />
        </mxCell>
        <mxCell id="fl1TzAaq8baz_N8d9lBg-53" value="&lt;font size=&quot;1&quot; color=&quot;#3333ff&quot; style=&quot;&quot;&gt;&lt;b style=&quot;font-size: 22px;&quot;&gt;Sleep&lt;/b&gt;&lt;/font&gt;" style="rounded=0;whiteSpace=wrap;html=1;fillColor=#D5E8D4;" parent="1" vertex="1">
          <mxGeometry x="354" y="1000" width="140" height="65" as="geometry" />
        </mxCell>
        <mxCell id="fl1TzAaq8baz_N8d9lBg-56" value="&lt;b style=&quot;&quot;&gt;&lt;font color=&quot;#ff0000&quot;&gt;Chronic insomnia- &lt;/font&gt;&lt;font color=&quot;#00994d&quot;&gt;&lt;span style=&quot;font-size: 14px;&quot;&gt;BXXXT + GZJLGMLT&lt;/span&gt;&lt;/font&gt;&lt;/b&gt;" style="rounded=0;whiteSpace=wrap;html=1;" parent="1" vertex="1">
          <mxGeometry x="110" y="1020" width="120" height="60" as="geometry" />
        </mxCell>
        <mxCell id="fl1TzAaq8baz_N8d9lBg-59" value="&lt;font color=&quot;#ff0000&quot;&gt;&lt;b&gt;Hot and restless at night-&lt;/b&gt;&lt;/font&gt;&amp;nbsp;&lt;font color=&quot;#00994d&quot;&gt;&lt;span style=&quot;font-size: 14px;&quot;&gt;&lt;b&gt;JWXYS&lt;/b&gt;&lt;/span&gt;&lt;/font&gt;" style="rounded=0;whiteSpace=wrap;html=1;" parent="1" vertex="1">
          <mxGeometry x="560" y="1005" width="120" height="60" as="geometry" />
        </mxCell>
        <mxCell id="fl1TzAaq8baz_N8d9lBg-61" style="edgeStyle=orthogonalEdgeStyle;rounded=0;orthogonalLoop=1;jettySize=auto;html=1;exitX=0.75;exitY=0;exitDx=0;exitDy=0;" parent="1" source="fl1TzAaq8baz_N8d9lBg-66" target="fl1TzAaq8baz_N8d9lBg-69" edge="1">
          <mxGeometry relative="1" as="geometry" />
        </mxCell>
        <mxCell id="fl1TzAaq8baz_N8d9lBg-63" style="edgeStyle=orthogonalEdgeStyle;rounded=0;orthogonalLoop=1;jettySize=auto;html=1;exitX=0.75;exitY=1;exitDx=0;exitDy=0;" parent="1" source="fl1TzAaq8baz_N8d9lBg-66" target="fl1TzAaq8baz_N8d9lBg-77" edge="1">
          <mxGeometry relative="1" as="geometry" />
        </mxCell>
        <mxCell id="fl1TzAaq8baz_N8d9lBg-64" style="edgeStyle=orthogonalEdgeStyle;rounded=0;orthogonalLoop=1;jettySize=auto;html=1;exitX=0.25;exitY=1;exitDx=0;exitDy=0;" parent="1" source="fl1TzAaq8baz_N8d9lBg-66" target="fl1TzAaq8baz_N8d9lBg-78" edge="1">
          <mxGeometry relative="1" as="geometry" />
        </mxCell>
        <mxCell id="fl1TzAaq8baz_N8d9lBg-65" style="edgeStyle=orthogonalEdgeStyle;rounded=0;orthogonalLoop=1;jettySize=auto;html=1;exitX=0;exitY=0.5;exitDx=0;exitDy=0;" parent="1" source="fl1TzAaq8baz_N8d9lBg-66" target="fl1TzAaq8baz_N8d9lBg-79" edge="1">
          <mxGeometry relative="1" as="geometry" />
        </mxCell>
        <mxCell id="fl1TzAaq8baz_N8d9lBg-66" value="&lt;font color=&quot;#3333ff&quot;&gt;&lt;span style=&quot;font-size: 22px;&quot;&gt;&lt;b&gt;Energy/&lt;br&gt;Resources&lt;/b&gt;&lt;/span&gt;&lt;/font&gt;" style="rounded=0;whiteSpace=wrap;html=1;fillColor=#D5E8D4;" parent="1" vertex="1">
          <mxGeometry x="290" y="1460" width="150" height="70" as="geometry" />
        </mxCell>
        <mxCell id="fl1TzAaq8baz_N8d9lBg-67" style="edgeStyle=orthogonalEdgeStyle;rounded=0;orthogonalLoop=1;jettySize=auto;html=1;exitX=0.75;exitY=0;exitDx=0;exitDy=0;" parent="1" source="fl1TzAaq8baz_N8d9lBg-69" target="fl1TzAaq8baz_N8d9lBg-70" edge="1">
          <mxGeometry relative="1" as="geometry" />
        </mxCell>
        <mxCell id="fl1TzAaq8baz_N8d9lBg-68" style="edgeStyle=orthogonalEdgeStyle;rounded=0;orthogonalLoop=1;jettySize=auto;html=1;exitX=0.25;exitY=0;exitDx=0;exitDy=0;" parent="1" source="fl1TzAaq8baz_N8d9lBg-69" target="fl1TzAaq8baz_N8d9lBg-71" edge="1">
          <mxGeometry relative="1" as="geometry" />
        </mxCell>
        <mxCell id="fl1TzAaq8baz_N8d9lBg-69" value="&lt;b&gt;&lt;font color=&quot;#ff0000&quot;&gt;Exhaustion&lt;/font&gt;&lt;/b&gt;" style="rounded=0;whiteSpace=wrap;html=1;" parent="1" vertex="1">
          <mxGeometry x="470" y="1380" width="120" height="60" as="geometry" />
        </mxCell>
        <mxCell id="fl1TzAaq8baz_N8d9lBg-70" value="&lt;font color=&quot;#ff9933&quot;&gt;&lt;b&gt;&lt;i&gt;Mild-&lt;/i&gt;&lt;/b&gt;&lt;/font&gt; &lt;font style=&quot;font-size: 14px;&quot; color=&quot;#00994d&quot;&gt;&lt;b&gt;SNS&lt;/b&gt;&lt;/font&gt;" style="rounded=0;whiteSpace=wrap;html=1;" parent="1" vertex="1">
          <mxGeometry x="610" y="1260" width="120" height="60" as="geometry" />
        </mxCell>
        <mxCell id="fl1TzAaq8baz_N8d9lBg-71" value="&lt;b&gt;&lt;font color=&quot;#ff9933&quot;&gt;&lt;i&gt;Chronic-&lt;/i&gt;&lt;/font&gt;&lt;/b&gt; &lt;b&gt;&lt;font color=&quot;#00994d&quot; style=&quot;font-size: 14px;&quot;&gt;DCHT&lt;/font&gt;&lt;/b&gt;" style="rounded=0;whiteSpace=wrap;html=1;" parent="1" vertex="1">
          <mxGeometry x="460" y="1260" width="120" height="60" as="geometry" />
        </mxCell>
        <mxCell id="fl1TzAaq8baz_N8d9lBg-77" value="&lt;b&gt;&lt;font color=&quot;#ff0000&quot;&gt;Immunity-&lt;/font&gt;&lt;/b&gt;&amp;nbsp;&lt;font color=&quot;#00994d&quot;&gt;&lt;span style=&quot;font-size: 14px;&quot;&gt;&lt;b&gt;CHGZT&lt;/b&gt;&lt;/span&gt;&lt;/font&gt;" style="rounded=0;whiteSpace=wrap;html=1;" parent="1" vertex="1">
          <mxGeometry x="430" y="1620" width="120" height="60" as="geometry" />
        </mxCell>
        <mxCell id="fl1TzAaq8baz_N8d9lBg-78" value="&lt;b&gt;&lt;font color=&quot;#ff0000&quot;&gt;Mental fatigue (feel cold, weak limbs)-&lt;/font&gt;&lt;/b&gt;&amp;nbsp;&lt;font color=&quot;#00994d&quot;&gt;&lt;span style=&quot;font-size: 14px;&quot;&gt;&lt;b&gt;BZYQT&lt;/b&gt;&lt;/span&gt;&lt;/font&gt;" style="rounded=0;whiteSpace=wrap;html=1;" parent="1" vertex="1">
          <mxGeometry x="250" y="1610" width="130" height="70" as="geometry" />
        </mxCell>
        <mxCell id="fl1TzAaq8baz_N8d9lBg-79" value="&lt;font color=&quot;#ff0000&quot;&gt;&lt;b&gt;Post Work-out-&lt;/b&gt;&lt;/font&gt;&amp;nbsp;&lt;b style=&quot;border-color: var(--border-color);&quot;&gt;&lt;font style=&quot;border-color: var(--border-color); font-size: 14px;&quot; color=&quot;#00994d&quot;&gt;GZXJT&lt;/font&gt;&lt;/b&gt;" style="rounded=0;whiteSpace=wrap;html=1;" parent="1" vertex="1">
          <mxGeometry x="120" y="1465" width="120" height="60" as="geometry" />
        </mxCell>
        <mxCell id="fl1TzAaq8baz_N8d9lBg-84" value="&lt;font color=&quot;#ff0000&quot;&gt;&lt;b&gt;Neck &amp;amp; shoulder tension-&lt;/b&gt;&lt;/font&gt;&amp;nbsp;&lt;font color=&quot;#00994d&quot;&gt;&lt;span style=&quot;font-size: 14px;&quot;&gt;&lt;b&gt;GZJGGT&lt;/b&gt;&lt;/span&gt;&lt;/font&gt;" style="rounded=0;whiteSpace=wrap;html=1;" parent="1" vertex="1">
          <mxGeometry x="364" y="640" width="120" height="60" as="geometry" />
        </mxCell>
        <mxCell id="lZhwmJNOhknuzAL7Jcyl-2" value="&lt;h1&gt;Formula List&lt;/h1&gt;&lt;p style=&quot;font-size: 17px;&quot;&gt;Bu Zhong Yi Qi Tang- Lift&lt;br&gt;Chai hu gui zhi tang- Immunify&lt;br&gt;Gui zhi xin jia tang- replenisher&amp;nbsp;&lt;br&gt;Si ni san- Regulator&lt;br&gt;Da chai hu tang- Cool descend&lt;br&gt;Jia wei xiao yao san- Cool &amp;amp; Calm&lt;br&gt;BXXXT + GZJLGMLT- Mind calm&lt;br&gt;XCHT + BH- Cool &amp;amp; Clear&lt;br&gt;Xiao Yao San- Easy Flow&lt;br&gt;BXXXT- biome fixer&lt;br&gt;Li zhong wan- warm gut&lt;br&gt;Shen ling bai zhu san- strong gut&lt;br&gt;Bao he wan- digestor&amp;nbsp;&lt;br&gt;Gui zhi jia ge gen tang- muscle relaxer&lt;/p&gt;" style="text;html=1;strokeColor=none;fillColor=none;spacing=5;spacingTop=-20;whiteSpace=wrap;overflow=hidden;rounded=0;" vertex="1" parent="1">
          <mxGeometry x="180" y="1730" width="380" height="380" as="geometry" />
        </mxCell>
      </root>
    </mxGraphModel>
  </diagram>
</mxfile>
